<svg width="641" height="200" viewBox="0 0 641 200" fill="none" xmlns="http://www.w3.org/2000/svg">
<rect width="200" height="200" rx="50" fill="black" style="fill:black;fill-opacity:1;"/>
<ellipse cx="72.469" cy="48.468" rx="14.468" ry="14.468" fill="white" style="fill:white;fill-opacity:1;"/>
<rect x="58" y="72.5817" width="28.9361" height="94.0423" rx="14.468" fill="white" style="fill:white;fill-opacity:1;"/>
<circle cx="128.532" cy="152.156" r="14.468" fill="white" style="fill:white;fill-opacity:1;"/>
<rect x="114.063" y="34" width="28.9361" height="94.0423" rx="14.468" fill="white" style="fill:white;fill-opacity:1;"/>
<path d="M267.88 52.4C267.88 50.3733 267.613 48.88 267.08 47.92C266.653 46.96 265.64 45.5733 264.04 43.76V41.52C266.173 40.24 269.64 39.12 274.44 38.16C279.24 37.0933 283.453 36.56 287.08 36.56C292.947 36.56 296.84 36.8267 298.76 37.36C299.4 38.4267 299.72 40.5067 299.72 43.6C299.72 46.6933 297.373 57.3067 292.68 75.44C295.453 76.08 298.333 76.4 301.32 76.4C307.187 76.4 311.507 73.4667 314.28 67.6C317.16 61.6267 318.6 54.9067 318.6 47.44C318.6 33.7867 310.067 26.96 293 26.96C279.987 26.96 269.053 29.04 260.2 33.2C251.347 37.2533 246.92 42.2667 246.92 48.24C246.92 52.8267 250.12 55.76 256.52 57.04C256.627 57.8933 256.68 58.9067 256.68 60.08C256.68 65.9467 255.72 70.3733 253.8 73.36C248.787 72.72 244.253 70.5867 240.2 66.96C236.147 63.3333 234.12 57.8933 234.12 50.64C234.12 39.44 240.147 30.64 252.2 24.24C264.36 17.7333 279.027 14.48 296.2 14.48C313.48 14.48 326.6 17.1467 335.56 22.48C344.627 27.7067 349.16 35.7067 349.16 46.48C349.16 57.1467 345.213 66.5867 337.32 74.8C329.427 83.0133 318.653 87.12 305 87.12C299.133 87.12 294.227 86.32 290.28 84.72C285.48 103.707 282.653 118.213 281.8 128.24C274.12 130.053 265.48 130.96 255.88 130.96C253.32 130.96 251.56 130.8 250.6 130.48C251.133 123.867 254.12 110.747 259.56 91.12C265.107 71.4933 267.88 58.5867 267.88 52.4ZM388.844 121.04C385.43 124.027 380.95 126.587 375.404 128.72C369.857 130.853 364.79 131.92 360.204 131.92C355.724 131.92 352.044 130.64 349.164 128.08C346.284 125.413 344.844 121.627 344.844 116.72C344.844 111.813 347.51 98.16 352.844 75.76C358.284 53.2533 361.004 36.56 361.004 25.68C361.004 23.3333 360.684 20.3467 360.044 16.72C370.07 13.9467 379.777 12.56 389.164 12.56C390.124 14.2667 390.604 17.04 390.604 20.88C390.604 28.1333 387.884 43.9733 382.444 68.4C377.11 92.72 374.444 106.747 374.444 110.48C374.444 114.213 375.084 116.08 376.364 116.08C377.43 116.08 379.724 115.387 383.244 114L385.004 113.2L388.844 121.04ZM471.224 65.2C468.984 72.1333 467.064 80.4 465.464 90C463.864 99.4933 463.064 106.16 463.064 110C463.064 113.733 463.65 115.6 464.824 115.6L472.824 113.36L475.704 121.36C472.29 124.027 467.917 126.48 462.584 128.72C457.357 130.853 452.717 131.92 448.664 131.92C441.73 131.92 437.357 128.933 435.544 122.96C427.117 128.933 419.65 131.92 413.144 131.92C406.744 131.92 401.784 129.573 398.264 124.88C394.744 120.187 392.984 113.467 392.984 104.72C392.984 92.6667 396.077 82.0533 402.264 72.88C408.45 63.7067 416.61 59.12 426.744 59.12C432.29 59.12 437.944 60.6667 443.704 63.76C444.557 61.84 445.25 60.4533 445.784 59.6C453.464 59.6 461.944 61.4667 471.224 65.2ZM423.064 102.8C423.064 108.133 423.437 111.493 424.184 112.88C424.93 114.267 426.317 114.96 428.344 114.96C430.37 114.96 432.344 114.16 434.264 112.56C434.69 100.187 436.717 87.2267 440.344 73.68C438.744 72.72 436.877 72.24 434.744 72.24C432.717 72.24 430.85 73.4133 429.144 75.76C427.544 78.1067 426.317 81.04 425.464 84.56C423.864 91.28 423.064 97.36 423.064 102.8ZM516.384 70C516.384 74.6933 515.05 82 512.384 91.92C509.717 101.733 508.384 108.133 508.384 111.12C508.384 114.107 508.97 115.6 510.144 115.6C511.317 115.6 513.45 115.067 516.544 114L517.984 113.36L520.864 121.36C517.237 124.133 512.704 126.587 507.264 128.72C501.93 130.853 497.077 131.92 492.704 131.92C488.33 131.92 484.864 130.693 482.304 128.24C479.85 125.787 478.624 122.267 478.624 117.68C478.624 112.987 479.904 105.893 482.464 96.4C485.13 86.8 486.464 80.72 486.464 78.16C486.464 74.2133 485.077 70.48 482.304 66.96L481.024 65.2L481.504 62.48C487.05 60.7733 497.824 59.92 513.824 59.92C515.53 61.84 516.384 65.2 516.384 70ZM504.384 47.44C499.584 47.44 495.797 46.16 493.024 43.6C490.357 41.04 489.024 37.7867 489.024 33.84C489.024 29.7867 490.677 26.4267 493.984 23.76C497.397 20.9867 501.504 19.6 506.304 19.6C511.104 19.6 514.837 20.72 517.504 22.96C520.17 25.2 521.504 28.3467 521.504 32.4C521.504 36.4533 519.85 39.9733 516.544 42.96C513.344 45.9467 509.29 47.44 504.384 47.44ZM564.353 70C564.353 74.6933 563.019 82 560.353 91.92C557.686 101.733 556.353 108.133 556.353 111.12C556.353 114.107 556.939 115.6 558.113 115.6C559.286 115.6 561.419 115.067 564.513 114L565.953 113.36L568.833 121.36C565.206 124.133 560.673 126.587 555.233 128.72C549.899 130.853 545.046 131.92 540.673 131.92C536.299 131.92 532.833 130.693 530.273 128.24C527.819 125.787 526.592 122.267 526.592 117.68C526.592 112.987 527.873 105.893 530.433 96.4C533.099 86.8 534.433 80.72 534.433 78.16C534.433 74.2133 533.046 70.48 530.273 66.96L528.993 65.2L529.473 62.48C535.019 60.7733 545.793 59.92 561.793 59.92C563.499 61.84 564.353 65.2 564.353 70ZM552.353 47.44C547.553 47.44 543.766 46.16 540.993 43.6C538.326 41.04 536.993 37.7867 536.993 33.84C536.993 29.7867 538.646 26.4267 541.953 23.76C545.366 20.9867 549.473 19.6 554.273 19.6C559.073 19.6 562.806 20.72 565.473 22.96C568.139 25.2 569.473 28.3467 569.473 32.4C569.473 36.4533 567.819 39.9733 564.513 42.96C561.313 45.9467 557.259 47.44 552.353 47.44ZM577.121 130.96H575.841C575.521 129.467 575.361 127.173 575.361 124.08C575.361 120.88 576.641 112.72 579.201 99.6C581.868 86.3733 583.201 78.9067 583.201 77.2C583.201 75.3867 582.721 73.5733 581.761 71.76C580.801 69.84 579.841 68.4 578.881 67.44L577.441 66L577.761 63.6C584.161 61.5733 594.775 60.56 609.601 60.56C610.988 63.2267 611.841 66.3733 612.161 70C618.668 62.7467 624.428 59.12 629.441 59.12C635.948 59.12 639.521 64.6133 640.161 75.6C639.948 75.8133 639.681 76.1867 639.361 76.72C639.041 77.1467 638.295 77.9467 637.121 79.12C635.948 80.2933 634.721 81.36 633.441 82.32C629.815 84.7733 625.975 86.2133 621.921 86.64C621.815 86.64 621.068 85.4667 619.681 83.12C618.401 80.7733 617.281 79.6 616.321 79.6C615.468 79.6 613.815 80.56 611.361 82.48C611.041 84.4 610.401 87.6533 609.441 92.24C608.588 96.8267 607.895 100.613 607.361 103.6C605.761 111.493 604.961 118.107 604.961 123.44L605.121 128.24C600.428 130.053 591.095 130.96 577.121 130.96Z" fill="black" style="fill:black;fill-opacity:1;"/>
<path d="M245.92 189V172.16H241.68V169H245.92V164.96C245.92 162.96 246.48 161.427 247.6 160.36C248.72 159.293 250.2 158.76 252.04 158.76C253.133 158.76 254.173 158.933 255.16 159.28V162.32C254.547 162.053 253.72 161.92 252.68 161.92C251.533 161.92 250.693 162.173 250.16 162.68C249.627 163.187 249.36 164.067 249.36 165.32V169H255.16V172.16H249.36V189H245.92ZM262.4 162.96C261.947 163.413 261.373 163.64 260.68 163.64C259.987 163.64 259.4 163.413 258.92 162.96C258.44 162.48 258.2 161.893 258.2 161.2C258.2 160.533 258.44 159.96 258.92 159.48C259.4 159 259.987 158.76 260.68 158.76C261.373 158.76 261.947 159 262.4 159.48C262.853 159.96 263.08 160.533 263.08 161.2C263.08 161.893 262.853 162.48 262.4 162.96ZM258.92 189V169H262.36V189H258.92ZM268.849 189V169H272.289V172.08C273.649 169.76 275.769 168.6 278.649 168.6C280.916 168.6 282.743 169.333 284.129 170.8C285.516 172.267 286.209 174.227 286.209 176.68V189H282.809V177.2C282.809 175.52 282.383 174.2 281.529 173.24C280.676 172.253 279.529 171.76 278.089 171.76C276.436 171.76 275.049 172.413 273.929 173.72C272.836 175.027 272.289 176.813 272.289 179.08V189H268.849ZM300.644 189.4C297.871 189.4 295.537 188.387 293.644 186.36C291.777 184.333 290.844 181.88 290.844 179C290.844 176.12 291.777 173.667 293.644 171.64C295.537 169.613 297.871 168.6 300.644 168.6C302.111 168.6 303.471 168.933 304.724 169.6C306.004 170.24 306.991 171.067 307.684 172.08V159H311.124V189H307.684V185.92C306.991 186.933 306.004 187.773 304.724 188.44C303.471 189.08 302.111 189.4 300.644 189.4ZM301.164 186.24C303.137 186.24 304.764 185.547 306.044 184.16C307.324 182.773 307.964 181.053 307.964 179C307.964 176.947 307.324 175.227 306.044 173.84C304.764 172.453 303.137 171.76 301.164 171.76C299.164 171.76 297.524 172.453 296.244 173.84C294.964 175.227 294.324 176.947 294.324 179C294.324 181.053 294.964 182.773 296.244 184.16C297.524 185.547 299.164 186.24 301.164 186.24ZM331.63 197.36H327.79L332.15 187.96L323.39 169H327.19L334.07 184.2L340.91 169H344.75L331.63 197.36ZM356.636 189.4C353.622 189.4 351.116 188.4 349.116 186.4C347.142 184.373 346.156 181.907 346.156 179C346.156 176.093 347.142 173.64 349.116 171.64C351.116 169.613 353.622 168.6 356.636 168.6C359.622 168.6 362.102 169.613 364.076 171.64C366.076 173.64 367.076 176.093 367.076 179C367.076 181.907 366.076 184.373 364.076 186.4C362.102 188.4 359.622 189.4 356.636 189.4ZM351.596 184.12C352.902 185.507 354.582 186.2 356.636 186.2C358.689 186.2 360.356 185.507 361.636 184.12C362.916 182.733 363.556 181.027 363.556 179C363.556 176.973 362.916 175.267 361.636 173.88C360.356 172.493 358.689 171.8 356.636 171.8C354.582 171.8 352.902 172.493 351.596 173.88C350.316 175.267 349.676 176.973 349.676 179C349.676 181.027 350.316 182.733 351.596 184.12ZM379.093 189.4C376.907 189.4 375.133 188.667 373.773 187.2C372.413 185.707 371.733 183.733 371.733 181.28V169H375.173V180.76C375.173 182.44 375.573 183.773 376.373 184.76C377.2 185.747 378.307 186.24 379.693 186.24C381.293 186.24 382.613 185.587 383.653 184.28C384.72 182.947 385.253 181.16 385.253 178.92V169H388.693V189H385.253V185.92C383.947 188.24 381.893 189.4 379.093 189.4ZM395.178 189V169H398.618V172.88C398.991 171.653 399.711 170.667 400.778 169.92C401.871 169.173 403.018 168.8 404.218 168.8C404.804 168.8 405.324 168.853 405.778 168.96V172.52C405.298 172.307 404.671 172.2 403.898 172.2C402.511 172.2 401.284 172.8 400.218 174C399.151 175.2 398.618 176.893 398.618 179.08V189H395.178ZM427.339 189.4C424.325 189.4 421.832 188.4 419.859 186.4C417.885 184.373 416.899 181.907 416.899 179C416.899 176.093 417.885 173.64 419.859 171.64C421.832 169.613 424.325 168.6 427.339 168.6C429.819 168.6 431.965 169.293 433.779 170.68C435.592 172.04 436.805 173.827 437.419 176.04H433.739C433.259 174.733 432.459 173.693 431.339 172.92C430.219 172.147 428.885 171.76 427.339 171.76C425.285 171.76 423.605 172.453 422.299 173.84C421.019 175.227 420.379 176.947 420.379 179C420.379 181.053 421.019 182.773 422.299 184.16C423.605 185.547 425.285 186.24 427.339 186.24C428.885 186.24 430.219 185.853 431.339 185.08C432.459 184.307 433.259 183.267 433.739 181.96H437.419C436.832 184.173 435.632 185.973 433.819 187.36C432.005 188.72 429.845 189.4 427.339 189.4ZM450.854 189.4C447.841 189.4 445.334 188.4 443.334 186.4C441.361 184.373 440.374 181.907 440.374 179C440.374 176.093 441.361 173.64 443.334 171.64C445.334 169.613 447.841 168.6 450.854 168.6C453.841 168.6 456.321 169.613 458.294 171.64C460.294 173.64 461.294 176.093 461.294 179C461.294 181.907 460.294 184.373 458.294 186.4C456.321 188.4 453.841 189.4 450.854 189.4ZM445.814 184.12C447.121 185.507 448.801 186.2 450.854 186.2C452.908 186.2 454.574 185.507 455.854 184.12C457.134 182.733 457.774 181.027 457.774 179C457.774 176.973 457.134 175.267 455.854 173.88C454.574 172.493 452.908 171.8 450.854 171.8C448.801 171.8 447.121 172.493 445.814 173.88C444.534 175.267 443.894 176.973 443.894 179C443.894 181.027 444.534 182.733 445.814 184.12ZM466.232 189V159H469.672V189H466.232ZM476.193 189V159H479.633V189H476.193ZM494.394 189.4C491.621 189.4 489.287 188.387 487.394 186.36C485.527 184.333 484.594 181.88 484.594 179C484.594 176.12 485.527 173.667 487.394 171.64C489.287 169.613 491.621 168.6 494.394 168.6C495.861 168.6 497.221 168.933 498.474 169.6C499.754 170.24 500.741 171.067 501.434 172.08V169H504.874V189H501.434V185.92C500.741 186.933 499.754 187.773 498.474 188.44C497.221 189.08 495.861 189.4 494.394 189.4ZM494.914 186.24C496.887 186.24 498.514 185.547 499.794 184.16C501.074 182.773 501.714 181.053 501.714 179C501.714 176.947 501.074 175.227 499.794 173.84C498.514 172.453 496.887 171.76 494.914 171.76C492.914 171.76 491.274 172.453 489.994 173.84C488.714 175.227 488.074 176.947 488.074 179C488.074 181.053 488.714 182.773 489.994 184.16C491.274 185.547 492.914 186.24 494.914 186.24ZM521.829 189.4C520.363 189.4 518.989 189.08 517.709 188.44C516.456 187.773 515.483 186.933 514.789 185.92V189H511.349V159H514.789V172.08C515.483 171.067 516.456 170.24 517.709 169.6C518.989 168.933 520.363 168.6 521.829 168.6C524.603 168.6 526.923 169.613 528.789 171.64C530.683 173.667 531.629 176.12 531.629 179C531.629 181.88 530.683 184.333 528.789 186.36C526.923 188.387 524.603 189.4 521.829 189.4ZM516.429 184.16C517.709 185.547 519.336 186.24 521.309 186.24C523.283 186.24 524.909 185.547 526.189 184.16C527.469 182.773 528.109 181.053 528.109 179C528.109 176.947 527.469 175.227 526.189 173.84C524.909 172.453 523.283 171.76 521.309 171.76C519.336 171.76 517.709 172.453 516.429 173.84C515.149 175.227 514.509 176.947 514.509 179C514.509 181.053 515.149 182.773 516.429 184.16ZM546.193 189V169H549.633V172.08C550.993 169.76 553.113 168.6 555.993 168.6C558.26 168.6 560.086 169.333 561.473 170.8C562.86 172.267 563.553 174.227 563.553 176.68V189H560.153V177.2C560.153 175.52 559.726 174.2 558.873 173.24C558.02 172.253 556.873 171.76 555.433 171.76C553.78 171.76 552.393 172.413 551.273 173.72C550.18 175.027 549.633 176.813 549.633 179.08V189H546.193ZM578.628 189.4C575.614 189.4 573.108 188.4 571.108 186.4C569.134 184.373 568.148 181.907 568.148 179C568.148 176.093 569.134 173.64 571.108 171.64C573.108 169.613 575.614 168.6 578.628 168.6C581.614 168.6 584.094 169.613 586.068 171.64C588.068 173.64 589.068 176.093 589.068 179C589.068 181.907 588.068 184.373 586.068 186.4C584.094 188.4 581.614 189.4 578.628 189.4ZM573.588 184.12C574.894 185.507 576.574 186.2 578.628 186.2C580.681 186.2 582.348 185.507 583.628 184.12C584.908 182.733 585.548 181.027 585.548 179C585.548 176.973 584.908 175.267 583.628 173.88C582.348 172.493 580.681 171.8 578.628 171.8C576.574 171.8 574.894 172.493 573.588 173.88C572.308 175.267 571.668 176.973 571.668 179C571.668 181.027 572.308 182.733 573.588 184.12ZM610.887 189L605.928 174.64L601.008 189H597.968L591.168 169H594.768L599.608 183.6L604.608 169H607.248L612.248 183.6L617.088 169H620.728L613.928 189H610.887Z" fill="black" style="fill:black;fill-opacity:1;"/>
</svg>
